<svg width="9" height="14" viewBox="0 0 9 14" fill="none" xmlns="http://www.w3.org/2000/svg">
<path d="M3.63867 10.8271C3.63281 10.6162 3.62988 10.458 3.62988 10.3525C3.62988 9.73145 3.71777 9.19531 3.89355 8.74414C4.02246 8.4043 4.23047 8.06152 4.51758 7.71582C4.72852 7.46387 5.10645 7.09766 5.65137 6.61719C6.20215 6.13086 6.55957 5.74414 6.72363 5.45703C6.8877 5.16992 6.96973 4.85645 6.96973 4.5166C6.96973 3.90137 6.72949 3.3623 6.24902 2.89941C5.76855 2.43066 5.17969 2.19629 4.48242 2.19629C3.80859 2.19629 3.24609 2.40723 2.79492 2.8291C2.34375 3.25098 2.04785 3.91016 1.90723 4.80664L0.28125 4.61328C0.427734 3.41211 0.861328 2.49219 1.58203 1.85352C2.30859 1.21484 3.2666 0.895508 4.45605 0.895508C5.71582 0.895508 6.7207 1.23828 7.4707 1.92383C8.2207 2.60938 8.5957 3.43848 8.5957 4.41113C8.5957 4.97363 8.46387 5.49219 8.2002 5.9668C7.93652 6.44141 7.4209 7.01855 6.65332 7.69824C6.1377 8.15527 5.80078 8.49219 5.64258 8.70898C5.48438 8.92578 5.36719 9.1748 5.29102 9.45605C5.21484 9.7373 5.1709 10.1943 5.15918 10.8271H3.63867ZM3.54199 14V12.1982H5.34375V14H3.54199Z" fill="white"/>
</svg>
